<?xml version="1.0" standalone="no"?>
<!DOCTYPE svg PUBLIC "-//W3C//DTD SVG 1.1//EN" "http://www.w3.org/Graphics/SVG/1.1/DTD/svg11.dtd">
<svg width="100%" height="100%" viewBox="0 0 1095 219" version="1.1" xmlns="http://www.w3.org/2000/svg" xmlns:xlink="http://www.w3.org/1999/xlink" xml:space="preserve" style="fill-rule:evenodd;clip-rule:evenodd;stroke-linejoin:round;stroke-miterlimit:1.41421;">
    <g id="Layer1" transform="matrix(1,1.04968e-21,1.04968e-21,1,2,-35.1209)">
        <g transform="matrix(1,0,0,1,-52,-148.927)">
            <path d="M81.391,240.153L81.391,333.317L113.313,333.317L113.313,348.716L65.008,348.716L65.008,240.153L81.391,240.153Z" style="fill:black;fill-rule:nonzero;"/>
            <path d="M278.547,240.153L278.547,305.544C278.547,314.872 280.07,321.692 283.117,326.005C287.664,332.239 294.063,335.356 302.313,335.356C310.609,335.356 317.031,332.239 321.578,326.005C324.625,321.833 326.148,315.012 326.148,305.544L326.148,240.153L342.531,240.153L342.531,310.044C342.531,321.481 338.969,330.903 331.844,338.309C323.828,346.559 313.984,350.684 302.313,350.684C290.641,350.684 280.82,346.559 272.852,338.309C265.727,330.903 262.164,321.481 262.164,310.044L262.164,240.153L278.547,240.153Z" style="fill:black;fill-rule:nonzero;"/>
            <path d="M368.547,348.716L368.547,232.77L447.719,315.598L447.719,240.153L464.102,240.153L464.102,355.325L384.93,272.708L384.93,348.716L368.547,348.716Z" style="fill:black;fill-rule:nonzero;"/>
            <path d="M571.328,245.989L571.328,265.395C561.859,257.473 552.063,253.512 541.938,253.512C530.781,253.512 521.383,257.52 513.742,265.536C506.055,273.505 502.211,283.255 502.211,294.786C502.211,306.177 506.055,315.786 513.742,323.614C521.43,331.442 530.852,335.356 542.008,335.356C547.773,335.356 552.672,334.419 556.703,332.544C558.953,331.606 561.285,330.341 563.699,328.747C566.113,327.153 568.656,325.231 571.328,322.981L571.328,342.739C561.953,348.036 552.109,350.684 541.797,350.684C526.281,350.684 513.039,345.27 502.07,334.442C491.148,323.52 485.688,310.348 485.688,294.927C485.688,281.098 490.258,268.77 499.398,257.942C510.648,244.677 525.203,238.044 543.063,238.044C552.813,238.044 562.234,240.692 571.328,245.989Z" style="fill:black;fill-rule:nonzero;"/>
            <path d="M611.406,282.622L658.234,282.622L658.234,240.153L674.617,240.153L674.617,348.716L658.234,348.716L658.234,298.02L611.406,298.02L611.406,348.716L595.023,348.716L595.023,240.153L611.406,240.153L611.406,282.622Z" style="fill:black;fill-rule:nonzero;"/>
        </g>
        <g transform="matrix(1,0,0,1,30,0)">
            <g transform="matrix(1,0,0,1,566,-81.745)">
                <path d="M84.675,266.786C84.675,269.378 85.011,270.914 85.683,271.394C86.355,271.874 88.083,272.114 90.867,272.114L96.771,272.114L96.771,280.466C92.739,281.138 89.571,281.474 87.267,281.474C82.947,281.474 79.779,280.418 77.763,278.306C75.747,276.194 74.739,272.882 74.739,268.37L74.739,210.77L61.203,210.77L61.203,202.418L74.739,202.418L74.739,172.898L84.675,172.898L84.675,202.418L100.227,202.418L100.227,210.77L84.675,210.77L84.675,266.786Z" style="fill:black;fill-rule:nonzero;"/>
                <path d="M191.091,202.418L191.091,278.882L181.443,278.882L181.443,265.778C172.707,276.242 162.723,281.474 151.491,281.474C140.259,281.474 130.779,277.466 123.051,269.45C115.323,261.434 111.459,251.882 111.459,240.794C111.459,229.706 115.347,220.202 123.123,212.282C130.899,204.362 140.211,200.402 151.059,200.402C163.539,200.402 173.667,205.73 181.443,216.386L181.443,202.418L191.091,202.418ZM182.019,241.01C182.019,232.274 179.091,224.906 173.235,218.906C167.379,212.906 160.203,209.906 151.707,209.906C143.211,209.906 136.035,213.002 130.179,219.194C124.323,225.386 121.395,232.706 121.395,241.154C121.395,249.602 124.371,256.922 130.323,263.114C136.275,269.306 143.403,272.402 151.707,272.402C160.011,272.402 167.139,269.426 173.091,263.474C179.043,257.522 182.019,250.034 182.019,241.01Z" style="fill:black;fill-rule:nonzero;"/>
                <path d="M209.523,202.418L219.603,202.418L219.603,213.506C222.291,208.994 224.907,205.682 227.451,203.57C229.995,201.458 232.827,200.402 235.947,200.402C239.067,200.402 242.211,201.266 245.379,202.994L240.195,211.346C238.755,210.482 237.267,210.05 235.731,210.05C232.755,210.05 229.947,211.586 227.307,214.658C224.667,217.73 222.723,221.69 221.475,226.538C220.227,231.386 219.603,240.194 219.603,252.962L219.603,278.882L209.523,278.882L209.523,202.418Z" style="fill:black;fill-rule:nonzero;"/>
                <path d="M323.571,202.418L333.507,202.418L333.507,261.458C333.507,271.922 332.595,279.602 330.771,284.498C328.947,289.394 326.307,293.474 322.851,296.738C319.395,300.002 315.219,302.498 310.323,304.226C305.427,305.954 300.051,306.818 294.195,306.818C274.227,306.818 261.075,298.85 254.739,282.914L265.395,282.914C270.963,292.898 280.419,297.89 293.763,297.89C300.195,297.89 305.787,296.642 310.539,294.146C315.291,291.65 318.651,288.458 320.619,284.57C322.587,280.682 323.571,274.61 323.571,266.354L323.571,263.042C319.635,267.938 314.979,271.586 309.603,273.986C304.227,276.386 298.563,277.586 292.611,277.586C281.475,277.586 272.211,273.794 264.819,266.21C257.427,258.626 253.731,249.698 253.731,239.426C253.731,228.77 257.667,219.602 265.539,211.922C273.411,204.242 282.939,200.402 294.123,200.402C305.307,200.402 315.123,205.49 323.571,215.666L323.571,202.418ZM324.003,239.426C324.003,231.074 321.171,224.066 315.507,218.402C309.843,212.738 302.835,209.906 294.483,209.906C285.651,209.906 278.307,212.954 272.451,219.05C266.595,225.146 263.667,232.13 263.667,240.002C263.667,247.874 266.499,254.57 272.163,260.09C277.827,265.61 285.075,268.37 293.907,268.37C302.739,268.37 309.963,265.682 315.579,260.306C321.195,254.93 324.003,247.97 324.003,239.426Z" style="fill:black;fill-rule:nonzero;"/>
                <path d="M417.891,254.114L426.243,258.434C417.987,273.794 405.795,281.474 389.667,281.474C378.147,281.474 368.643,277.514 361.155,269.594C353.667,261.674 349.923,252.146 349.923,241.01C349.923,229.874 353.691,220.322 361.227,212.354C368.763,204.386 378.075,200.402 389.163,200.402C400.251,200.402 409.563,204.098 417.099,211.49C424.635,218.882 428.547,228.962 428.835,241.73L360.003,241.73C360.291,250.946 363.195,258.362 368.715,263.978C374.235,269.594 380.931,272.402 388.803,272.402C401.763,272.402 411.459,266.306 417.891,254.114ZM417.891,233.234C416.547,225.938 413.187,220.226 407.811,216.098C402.435,211.97 396.243,209.906 389.235,209.906C374.835,209.906 365.427,217.682 361.011,233.234L417.891,233.234Z" style="fill:black;fill-rule:nonzero;"/>
                <path d="M465.699,266.786C465.699,269.378 466.035,270.914 466.707,271.394C467.379,271.874 469.107,272.114 471.891,272.114L477.795,272.114L477.795,280.466C473.763,281.138 470.595,281.474 468.291,281.474C463.971,281.474 460.803,280.418 458.787,278.306C456.771,276.194 455.763,272.882 455.763,268.37L455.763,210.77L442.227,210.77L442.227,202.418L455.763,202.418L455.763,172.898L465.699,172.898L465.699,202.418L481.251,202.418L481.251,210.77L465.699,210.77L465.699,266.786Z" style="fill:black;fill-rule:nonzero;"/>
            </g>
            <g transform="matrix(1.26471,0,0,1.26471,-93.8609,-153.505)">
                <path d="M754,229C763.383,229 771,236.617 771,246C771,255.383 763.383,263 754,263C744.617,263 737,255.383 737,246C737,236.617 744.617,229 754,229ZM754,234.391C760.407,234.391 765.609,239.593 765.609,246C765.609,252.407 760.407,257.609 754,257.609C747.593,257.609 742.391,252.407 742.391,246C742.391,239.593 747.593,234.391 754,234.391Z" style="fill:black;"/>
            </g>
            <g transform="matrix(1,0,0,1,213.764,-73.4235)">
                <circle cx="645.963" cy="231.037" r="5.963" style="fill:black;"/>
            </g>
        </g>
        <g transform="matrix(1,0,0,1,23,-19.4557)">
            <g id="cone" transform="matrix(0.230745,0,0,0.291925,-22.5019,34.2536)">
                <rect x="540" y="734" width="122" height="14" style="fill:black;"/>
            </g>
            <g id="right rocket" transform="matrix(0.0942475,0,0,0.0942475,104.271,189.624)">
                <path d="M608,721L542,720.998C542,720.998 517.342,610.745 503,503.64C493.956,436.106 486.899,379.834 504,311.322C527.981,215.244 574.865,160.825 608,117C641.135,160.825 688.019,215.244 712,311.322C729.101,379.834 722.044,436.106 713,503.64C698.658,610.745 674,720.998 674,720.998L608,721Z" style="fill:black;"/>
            </g>
            <g id="left rocket" transform="matrix(0.0942475,0,0,0.0942475,13.4824,189.624)">
                <path d="M608,721L542,720.998C542,720.998 517.342,610.745 503,503.64C493.956,436.106 486.899,379.834 504,311.322C527.981,215.244 574.865,160.825 608,117C641.135,160.825 688.019,215.244 712,311.322C729.101,379.834 722.044,436.106 713,503.64C698.658,610.745 674,720.998 674,720.998L608,721Z" style="fill:black;"/>
            </g>
            <g id="left wing" transform="matrix(0.209656,0,0,0.209656,-18.7728,91.6434)">
                <path d="M488.554,659.679C501.286,651.991 511.375,644.806 521.518,629.193C527.676,665.319 531.679,684.718 538.779,719.21L482.055,720.292C483.851,707.697 485.086,699.665 486.273,690.557C487.484,681.259 488.402,669.838 488.554,659.679Z" style="fill:black;"/>
            </g>
            <g id="right wing" transform="matrix(-0.209656,0,0,0.209656,251.201,91.7967)">
                <path d="M488.554,659.679C501.286,651.991 511.375,644.806 521.518,629.193C527.676,665.319 531.679,684.718 538.779,719.21L482.055,720.292C483.851,707.697 485.086,699.665 486.273,690.557C487.484,681.259 488.402,669.838 488.554,659.679Z" style="fill:black;"/>
            </g>
            <g transform="matrix(0.291925,0,0,0.291925,-61.315,35.4213)">
                <path d="M694.972,616.118C684.003,676.271 674,720.998 674,720.998L608,721L542,720.998C542,720.998 531.997,676.271 521.028,616.118C549.657,615.096 578.686,614.559 608,614.559C637.314,614.559 666.343,615.096 694.972,616.118ZM518.066,599.62C512.746,569.499 507.39,536.422 503,503.64C493.956,436.106 486.899,379.834 504,311.322C504.793,308.143 505.612,305.01 506.454,301.922C539.789,300.534 573.7,299.8 608,299.8C642.3,299.8 676.211,300.534 709.546,301.922C710.388,305.01 711.207,308.143 712,311.322C729.101,379.834 722.044,436.106 713,503.64C708.61,536.422 703.254,569.499 697.934,599.62C668.397,598.375 638.371,597.722 608,597.722C577.629,597.722 547.603,598.375 518.066,599.62ZM608,346C645.53,346 676,376.47 676,414C676,451.53 645.53,482 608,482C570.47,482 540,451.53 540,414C540,376.47 570.47,346 608,346ZM608,363C636.148,363 659,385.852 659,414C659,442.148 636.148,465 608,465C579.852,465 557,442.148 557,414C557,385.852 579.852,363 608,363ZM511.388,285.152C536.727,205.045 577.999,156.68 608,117C638.001,156.68 679.273,205.045 704.612,285.152C672.926,283.718 640.663,282.962 608,282.962C575.337,282.962 543.074,283.718 511.388,285.152Z" style="fill:black;"/>
            </g>
        </g>
    </g>
</svg>
