<?xml version="1.0" encoding="utf-8"?>
<!-- Generator: Adobe Illustrator 19.0.0, SVG Export Plug-In . SVG Version: 6.00 Build 0)  -->
<svg version="1.1" id="Layer_1" xmlns="http://www.w3.org/2000/svg" xmlns:xlink="http://www.w3.org/1999/xlink" x="0px" y="0px"
	 viewBox="0 316 152 162" style="enable-background:new 0 316 152 162;" xml:space="preserve">
<g id="Layer1" transform="matrix(1,1.04968e-21,1.04968e-21,1,2,-35.1209)">
	<g transform="matrix(1,0,0,1,-52,-148.927)">
		<path d="M185,539"/>
	</g>
	<g transform="matrix(1,0,0,1,23,-19.4557)">
		<g id="cone" transform="matrix(0.230745,0,0,0.291925,-22.5019,34.2536)">
			<rect x="276" y="1675.1" width="98.7" height="11.6"/>
		</g>
		<g id="right_rocket" transform="matrix(0.0942475,0,0,0.0942475,104.271,189.624)">
			<path d="M-158.9,3619.2l-53.4,0c0,0-19.9-91-31.6-179.4c-7.3-55.7-13-102.2,0.8-158.7c19.4-79.3,57.3-124.2,84.1-160.4
				c26.8,36.2,64.7,81.1,84.1,160.4c13.8,56.5,8.1,103,0.8,158.7c-11.6,88.4-31.6,179.4-31.6,179.4L-158.9,3619.2z"/>
		</g>
		<g id="left_rocket" transform="matrix(0.0942475,0,0,0.0942475,13.4824,189.624)">
			<path d="M25,3619.2l-53.4,0c0,0-19.9-91-31.6-179.4c-7.3-55.7-13-102.2,0.8-158.7c19.4-79.3,57.3-124.2,84.1-160.4
				c26.8,36.2,64.7,81.1,84.1,160.4c13.8,56.5,8.1,103,0.8,158.7c-11.6,88.4-31.6,179.4-31.6,179.4L25,3619.2z"/>
		</g>
		<g id="left_wing" transform="matrix(0.209656,0,0,0.209656,-18.7728,91.6434)">
			<path d="M214.8,1985.5c10.3-6.3,18.5-12.3,26.7-25.2c5,29.8,8.2,45.8,14,74.3l-45.9,0.9c1.5-10.4,2.5-17,3.4-24.5
				C213.9,2003.4,214.6,1993.9,214.8,1985.5z"/>
		</g>
		<g id="right_wing" transform="matrix(-0.209656,0,0,0.209656,251.201,91.7967)">
			<path d="M821.6,1985.4c10.3-6.3,18.5-12.3,26.7-25.2c5,29.8,8.2,45.8,14,74.3l-45.9,0.9c1.5-10.4,2.5-17,3.4-24.5
				C820.8,2003.2,821.5,1993.8,821.6,1985.4z"/>
		</g>
		<g transform="matrix(0.291925,0,0,0.291925,-61.315,35.4213)">
			<path d="M460.5,1577.1c-8.9,49.6-17,86.6-17,86.6l-53.4,0l-53.4,0c0,0-8.1-36.9-17-86.6c23.2-0.8,46.6-1.3,70.4-1.3
				C413.8,1575.8,437.3,1576.3,460.5,1577.1z M317.3,1563.5c-4.3-24.9-8.6-52.2-12.2-79.2c-7.3-55.7-13-102.2,0.8-158.7
				c0.6-2.6,1.3-5.2,2-7.8c27-1.1,54.4-1.8,82.2-1.8s55.2,0.6,82.2,1.8c0.7,2.5,1.3,5.1,2,7.8c13.8,56.5,8.1,103,0.8,158.7
				c-3.6,27.1-7.9,54.4-12.2,79.2c-23.9-1-48.2-1.6-72.8-1.6C365.5,1561.9,341.2,1562.5,317.3,1563.5z M390.1,1354.2
				c30.4,0,55,25.1,55,56.1c0,31-24.7,56.1-55,56.1c-30.4,0-55-25.1-55-56.1C335.1,1379.3,359.7,1354.2,390.1,1354.2z M390.1,1368.2
				c22.8,0,41.3,18.9,41.3,42.1c0,23.2-18.5,42.1-41.3,42.1c-22.8,0-41.3-18.9-41.3-42.1C348.8,1387.1,367.3,1368.2,390.1,1368.2z
				 M311.9,1304c20.5-66.1,53.9-106,78.2-138.8c24.3,32.7,57.7,72.7,78.2,138.8c-25.6-1.2-51.7-1.8-78.2-1.8
				S337.6,1302.8,311.9,1304z"/>
		</g>
	</g>
</g>
</svg>
