<?xml version="1.0" standalone="no"?>
<!DOCTYPE svg PUBLIC "-//W3C//DTD SVG 20010904//EN"
 "http://www.w3.org/TR/2001/REC-SVG-20010904/DTD/svg10.dtd">
<svg version="1.0" xmlns="http://www.w3.org/2000/svg"
 width="156.000000pt" height="156.000000pt" viewBox="0 0 156.000000 156.000000"
 preserveAspectRatio="xMidYMid meet">
<metadata>
Created by potrace 1.11, written by Peter Selinger 2001-2013
</metadata>
<g transform="translate(0.000000,156.000000) scale(0.100000,-0.100000)"
fill="#000000" stroke="none">
<path d="M687 1513 c-82 -115 -165 -259 -171 -298 -1 -8 -5 -18 -9 -21 -4 -4
-7 -14 -7 -23 0 -14 26 -16 225 -16 158 0 225 3 225 11 0 20 -56 147 -90 204
-31 53 -129 190 -135 190 -2 0 -19 -21 -38 -47z"/>
<path d="M485 1109 c-25 -40 -37 -268 -21 -386 3 -24 9 -62 12 -85 15 -117 33
-231 37 -235 7 -6 427 -9 427 -3 0 3 7 43 14 90 8 47 17 108 21 135 3 28 8 64
11 80 14 75 10 284 -5 346 l-16 64 -237 2 c-156 2 -239 -1 -243 -8z"/>
<path d="M333 447 c-49 -75 -57 -100 -57 -187 0 -47 3 -98 6 -115 3 -16 9 -53
13 -82 7 -51 8 -51 46 -55 42 -4 74 4 75 18 0 9 13 82 20 119 21 102 5 212
-40 284 -34 53 -38 54 -63 18z"/>
<path d="M1071 452 c-59 -83 -77 -180 -57 -297 4 -22 11 -61 15 -88 5 -26 11
-50 14 -53 6 -6 97 -8 102 -2 2 2 6 19 9 38 3 19 10 58 15 85 5 28 9 86 7 130
-2 81 -21 137 -65 194 l-18 23 -22 -30z"/>
<path d="M567 362 c-47 -3 -47 -3 -43 -35 4 -36 34 -183 42 -209 4 -14 24 -16
160 -16 105 1 157 4 159 12 2 6 6 25 9 41 2 17 12 67 22 113 9 45 14 85 11 88
-6 6 -285 11 -360 6z"/>
<path d="M489 261 c-18 -19 -28 -42 -33 -79 l-7 -52 50 0 50 0 -6 38 c-4 20
-11 56 -17 78 l-11 41 -26 -26z"/>
<path d="M920 227 c-7 -34 -14 -70 -15 -80 -3 -14 4 -17 46 -17 l50 0 -6 52
c-5 37 -14 59 -35 79 l-28 28 -12 -62z"/>
<path d="M614 81 c-2 -2 -4 -11 -4 -20 0 -14 15 -16 107 -14 60 1 111 2 116 3
4 0 7 8 7 18 0 15 -12 17 -111 17 -61 0 -112 -2 -115 -4z"/>
</g>
</svg>
